# xmcd
#
# Track frame offsets: 
#        150
#        24123
#        42070
#        68946
#        91268
#        114329
#        134893
#        154636
#        177457
#
# Disc length: 2801 seconds
#
# Revision: 0
# Processed by: cddbd v1.5.2PL0 Copyright (c) Steve Scherf et al.
# Submitted via: ExactAudioCopyFreeDBPlugin 1.0
#
DISCID=6f0aef09
DTITLE=Marvin Gaye - Midnight Love
DYEAR=2002
DGENRE=Soul
TTITLE0=Midnight Lady
TTITLE1=Sexual Healing
TTITLE2=Rockin' After Midnight
TTITLE3='Til Tomorrow
TTITLE4=Turn On The Music
TTITLE5=Third World Girl
TTITLE6=Joy
TTITLE7=My Love Is Waiting
TTITLE8=Rockin' After Midnight (Instrumental) [Bonus]
EXTD=
EXTT0=
EXTT1=
EXTT2=
EXTT3=
EXTT4=
EXTT5=
EXTT6=
EXTT7=
EXTT8=
PLAYORDER=
